<mxfile host="app.diagrams.net" modified="2022-07-02T04:34:44.589Z" agent="5.0 (Macintosh; Intel Mac OS X 10_15_7) AppleWebKit/537.36 (KHTML, like Gecko) Chrome/103.0.0.0 Safari/537.36" etag="Uc6fvcwRYYfXA3HMaQxL" version="20.0.4" type="github">
  <diagram id="Xte3MrYgtvvqcMfJZ4iF" name="Page-1">
    <mxGraphModel dx="728" dy="501" grid="1" gridSize="10" guides="1" tooltips="1" connect="1" arrows="1" fold="1" page="1" pageScale="1" pageWidth="850" pageHeight="1100" math="0" shadow="0">
      <root>
        <mxCell id="0" />
        <mxCell id="1" parent="0" />
        <mxCell id="__keWsVoVuEvQR2MrY3j-3" style="edgeStyle=orthogonalEdgeStyle;rounded=0;orthogonalLoop=1;jettySize=auto;html=1;exitX=0.5;exitY=0;exitDx=0;exitDy=0;entryX=0.5;entryY=0;entryDx=0;entryDy=0;fontSize=16;elbow=vertical;curved=1;" edge="1" parent="1" source="__keWsVoVuEvQR2MrY3j-1" target="__keWsVoVuEvQR2MrY3j-2">
          <mxGeometry relative="1" as="geometry" />
        </mxCell>
        <mxCell id="__keWsVoVuEvQR2MrY3j-1" value="&lt;font style=&quot;font-size: 16px;&quot;&gt;思考&lt;/font&gt;" style="ellipse;whiteSpace=wrap;html=1;aspect=fixed;fillColor=#dae8fc;strokeColor=#6c8ebf;" vertex="1" parent="1">
          <mxGeometry x="120" y="210" width="80" height="80" as="geometry" />
        </mxCell>
        <mxCell id="__keWsVoVuEvQR2MrY3j-4" style="edgeStyle=orthogonalEdgeStyle;curved=1;rounded=0;orthogonalLoop=1;jettySize=auto;html=1;exitX=0.5;exitY=1;exitDx=0;exitDy=0;entryX=0.5;entryY=1;entryDx=0;entryDy=0;fontSize=16;elbow=vertical;" edge="1" parent="1" source="__keWsVoVuEvQR2MrY3j-2" target="__keWsVoVuEvQR2MrY3j-1">
          <mxGeometry relative="1" as="geometry" />
        </mxCell>
        <mxCell id="__keWsVoVuEvQR2MrY3j-2" value="&lt;span style=&quot;font-size: 16px;&quot;&gt;认识&lt;/span&gt;" style="ellipse;whiteSpace=wrap;html=1;aspect=fixed;fillColor=#f8cecc;strokeColor=#b85450;" vertex="1" parent="1">
          <mxGeometry x="280" y="210" width="80" height="80" as="geometry" />
        </mxCell>
      </root>
    </mxGraphModel>
  </diagram>
</mxfile>
